<svg width="20" height="20" viewBox="0 0 20 20" fill="none" xmlns="http://www.w3.org/2000/svg">
<path d="M9.99845 10.5769C10.9313 10.5769 11.8489 10.639 12.7468 10.759C13.5886 10.8715 14.2625 11.5026 14.2625 12.3077C14.2625 15.1753 12.3533 17.5 9.99811 17.5C7.64296 17.5 5.73372 15.1753 5.73372 12.3077C5.73372 11.5027 6.40751 10.8716 7.2492 10.7591C8.1474 10.639 9.06527 10.5769 9.99845 10.5769ZM9.99845 10.5769C12.34 10.5769 14.5854 10.9679 16.6654 11.6847C16.5642 13.3034 16.2428 14.8661 15.7291 16.3462M9.99845 10.5769C7.65686 10.5769 5.41195 10.9679 3.33203 11.6847C3.43319 13.3034 3.7546 14.8661 4.26828 16.3462M9.99845 10.5769C11.0078 10.5769 11.8261 9.80203 11.8261 8.84615C11.8261 8.81938 11.8255 8.79274 11.8242 8.76626M9.99845 10.5769C8.98909 10.5769 8.17094 9.80203 8.17094 8.84615C8.17094 8.81938 8.17158 8.79274 8.17285 8.76626M9.99883 7.11538C10.8069 7.11538 11.5997 7.0533 12.3721 6.93389C12.6991 6.88335 12.9738 6.65864 13.0178 6.34766C13.0356 6.22136 13.0448 6.09247 13.0448 5.96154C13.0448 5.47572 12.918 5.01796 12.694 4.61631M9.99883 7.11538C9.19074 7.11538 8.39796 7.0533 7.62552 6.93389C7.29854 6.88335 7.02382 6.65864 6.97989 6.34766C6.96205 6.22136 6.95284 6.09247 6.95284 5.96154C6.95284 5.475 7.08003 5.01659 7.30465 4.61452M9.99883 7.11538C9.01776 7.11538 8.21693 7.84747 8.17285 8.76626M9.99883 7.11538C10.9799 7.11538 11.7801 7.84747 11.8242 8.76626M7.30465 4.61452C6.95803 4.39613 6.64263 4.13683 6.36612 3.8439C6.42311 3.35858 6.58606 2.90354 6.83255 2.5M7.30465 4.61452C7.81551 3.70003 8.83034 3.07692 9.99883 3.07692C11.1681 3.07692 12.1835 3.70084 12.694 4.61631M12.694 4.61631C13.0403 4.39849 13.3554 4.13987 13.6318 3.8477C13.5752 3.36095 13.4121 2.90459 13.1649 2.5M4.24867 5.38462C4.08213 6.21605 3.97446 7.06721 3.92993 7.93408C5.2849 8.35404 6.70528 8.63718 8.17285 8.76626M15.7484 5.38462C15.9149 6.21605 16.0226 7.06721 16.0671 7.93408C14.7122 8.35403 13.2918 8.63717 11.8242 8.76626" stroke="#CECFD2" stroke-width="1.66667" stroke-linecap="round" stroke-linejoin="round"/>
</svg>
