<svg width="20" height="20" viewBox="0 0 20 20" fill="none" xmlns="http://www.w3.org/2000/svg">
<path d="M1.66797 6.41554C1.66797 5.17209 2.67599 4.16406 3.91945 4.16406C4.56552 4.16406 5.13911 3.75065 5.34341 3.13773L5.41797 2.91406C5.45313 2.80859 5.47071 2.75585 5.48951 2.70906C5.72968 2.11167 6.29246 1.70603 6.93515 1.66711C6.98548 1.66406 7.04107 1.66406 7.15225 1.66406H12.8504C12.9615 1.66406 13.0171 1.66406 13.0675 1.66711C13.7101 1.70603 14.2729 2.11167 14.5131 2.70906C14.5319 2.75585 14.5495 2.80859 14.5846 2.91406L14.6592 3.13773C14.8635 3.75065 15.4371 4.16406 16.0832 4.16406C17.3266 4.16406 18.3346 5.17209 18.3346 6.41554V13.4974C18.3346 14.8975 18.3346 15.5976 18.0622 16.1324C17.8225 16.6028 17.44 16.9852 16.9696 17.2249C16.4348 17.4974 15.7348 17.4974 14.3346 17.4974H5.66797C4.26784 17.4974 3.56777 17.4974 3.03299 17.2249C2.56259 16.9852 2.18014 16.6028 1.94045 16.1324C1.66797 15.5976 1.66797 14.8975 1.66797 13.4974V6.41554Z" stroke="#CECFD2" stroke-width="1.66667" stroke-linecap="round" stroke-linejoin="round"/>
<path d="M10.0013 13.7474C12.0724 13.7474 13.7513 12.0685 13.7513 9.9974C13.7513 7.92633 12.0724 6.2474 10.0013 6.2474C7.93023 6.2474 6.2513 7.92633 6.2513 9.9974C6.2513 12.0685 7.93023 13.7474 10.0013 13.7474Z" stroke="#CECFD2" stroke-width="1.66667" stroke-linecap="round" stroke-linejoin="round"/>
</svg>
