<svg width="20" height="20" viewBox="0 0 20 20" fill="none" xmlns="http://www.w3.org/2000/svg">
<path d="M16.6693 8.7513V5.66797C16.6693 4.26784 16.6693 3.56777 16.3968 3.03299C16.1571 2.56259 15.7747 2.18014 15.3042 1.94045C14.7695 1.66797 14.0694 1.66797 12.6693 1.66797H7.33594C5.93581 1.66797 5.23574 1.66797 4.70096 1.94045C4.23056 2.18014 3.8481 2.56259 3.60842 3.03299C3.33594 3.56777 3.33594 4.26784 3.33594 5.66797V14.3346C3.33594 15.7348 3.33594 16.4348 3.60842 16.9696C3.8481 17.44 4.23056 17.8225 4.70096 18.0622C5.23574 18.3346 5.93581 18.3346 7.33594 18.3346H9.58594M18.3359 18.3346L17.0859 17.0846M17.9193 15.0013C17.9193 16.6121 16.6134 17.918 15.0026 17.918C13.3918 17.918 12.0859 16.6121 12.0859 15.0013C12.0859 13.3905 13.3918 12.0846 15.0026 12.0846C16.6134 12.0846 17.9193 13.3905 17.9193 15.0013Z" stroke="#CECFD2" stroke-width="1.66667" stroke-linecap="round" stroke-linejoin="round"/>
</svg>
