<svg width="20" height="20" viewBox="0 0 20 20" fill="none" xmlns="http://www.w3.org/2000/svg">
<path d="M16.6654 8.7474V5.66406C16.6654 4.26393 16.6654 3.56387 16.3929 3.02909C16.1532 2.55868 15.7707 2.17623 15.3003 1.93655C14.7656 1.66406 14.0655 1.66406 12.6654 1.66406H7.33203C5.9319 1.66406 5.23183 1.66406 4.69706 1.93655C4.22665 2.17623 3.8442 2.55868 3.60451 3.02909C3.33203 3.56387 3.33203 4.26393 3.33203 5.66406V14.3307C3.33203 15.7309 3.33203 16.4309 3.60451 16.9657C3.8442 17.4361 4.22665 17.8186 4.69706 18.0582C5.23183 18.3307 5.9319 18.3307 7.33203 18.3307H9.58203M18.332 18.3307L17.082 17.0807M17.9154 14.9974C17.9154 16.6082 16.6095 17.9141 14.9987 17.9141C13.3879 17.9141 12.082 16.6082 12.082 14.9974C12.082 13.3866 13.3879 12.0807 14.9987 12.0807C16.6095 12.0807 17.9154 13.3866 17.9154 14.9974Z" stroke="#CECFD2" stroke-width="1.66667" stroke-linecap="round" stroke-linejoin="round"/>
</svg>
