<svg width="20" height="20" viewBox="0 0 20 20" fill="none" xmlns="http://www.w3.org/2000/svg">
<path d="M14.1667 16.6641H14C12.5999 16.6641 11.8998 16.6641 11.365 16.3916C10.8946 16.1519 10.5122 15.7694 10.2725 15.299C10 14.7643 10 14.0642 10 12.6641V7.33073C10 5.9306 10 5.23053 10.2725 4.69575C10.5122 4.22535 10.8946 3.8429 11.365 3.60321C11.8998 3.33073 12.5999 3.33073 14 3.33073H14.1667M14.1667 16.6641C14.1667 17.5845 14.9129 18.3307 15.8333 18.3307C16.7538 18.3307 17.5 17.5845 17.5 16.6641C17.5 15.7436 16.7538 14.9974 15.8333 14.9974C14.9129 14.9974 14.1667 15.7436 14.1667 16.6641ZM14.1667 3.33073C14.1667 4.2512 14.9129 4.9974 15.8333 4.9974C16.7538 4.9974 17.5 4.2512 17.5 3.33073C17.5 2.41025 16.7538 1.66406 15.8333 1.66406C14.9129 1.66406 14.1667 2.41025 14.1667 3.33073ZM5.83333 9.9974L14.1667 9.9974M5.83333 9.9974C5.83333 10.9179 5.08714 11.6641 4.16667 11.6641C3.24619 11.6641 2.5 10.9179 2.5 9.9974C2.5 9.07692 3.24619 8.33073 4.16667 8.33073C5.08714 8.33073 5.83333 9.07692 5.83333 9.9974ZM14.1667 9.9974C14.1667 10.9179 14.9129 11.6641 15.8333 11.6641C16.7538 11.6641 17.5 10.9179 17.5 9.9974C17.5 9.07692 16.7538 8.33073 15.8333 8.33073C14.9129 8.33073 14.1667 9.07692 14.1667 9.9974Z" stroke="#CECFD2" stroke-width="1.66667" stroke-linecap="round" stroke-linejoin="round"/>
</svg>
