<svg width="20" height="20" viewBox="0 0 20 20" fill="none" xmlns="http://www.w3.org/2000/svg">
<path d="M18.3346 7.4402C18.3346 6.93536 18.3346 6.68293 18.2348 6.56605C18.1482 6.46463 18.0182 6.4108 17.8853 6.42127C17.732 6.43333 17.5535 6.61182 17.1966 6.9688L14.168 9.9974L17.1966 13.026C17.5535 13.383 17.732 13.5615 17.8853 13.5735C18.0182 13.584 18.1482 13.5302 18.2348 13.4287C18.3346 13.3119 18.3346 13.0594 18.3346 12.5546V7.4402Z" stroke="#CECFD2" stroke-width="1.66667" stroke-linecap="round" stroke-linejoin="round"/>
<path d="M1.66797 8.16406C1.66797 6.76393 1.66797 6.06387 1.94045 5.52909C2.18014 5.05868 2.56259 4.67623 3.03299 4.43655C3.56777 4.16406 4.26784 4.16406 5.66797 4.16406H10.168C11.5681 4.16406 12.2682 4.16406 12.8029 4.43655C13.2734 4.67623 13.6558 5.05868 13.8955 5.52909C14.168 6.06387 14.168 6.76393 14.168 8.16406V11.8307C14.168 13.2309 14.168 13.9309 13.8955 14.4657C13.6558 14.9361 13.2734 15.3186 12.8029 15.5582C12.2682 15.8307 11.5681 15.8307 10.168 15.8307H5.66797C4.26784 15.8307 3.56777 15.8307 3.03299 15.5582C2.56259 15.3186 2.18014 14.9361 1.94045 14.4657C1.66797 13.9309 1.66797 13.2309 1.66797 11.8307V8.16406Z" stroke="#CECFD2" stroke-width="1.66667" stroke-linecap="round" stroke-linejoin="round"/>
</svg>
