<svg width="24" height="24" viewBox="0 0 24 24" fill="none" xmlns="http://www.w3.org/2000/svg">
<path d="M2.00146 7.69885C2.00146 6.20671 3.21109 4.99707 4.70324 4.99707C5.47853 4.99707 6.16683 4.50098 6.41199 3.76547L6.50147 3.49707C6.54366 3.37051 6.56475 3.30722 6.58731 3.25107C6.87552 2.5342 7.55085 2.04743 8.32208 2.00073C8.38248 1.99707 8.44918 1.99707 8.5826 1.99707H15.4204C15.5537 1.99707 15.6204 1.99707 15.6809 2.00073C16.452 2.04743 17.1274 2.5342 17.4156 3.25107C17.4382 3.30722 17.4593 3.37051 17.5014 3.49707L17.5909 3.76547C17.8361 4.50098 18.5244 4.99707 19.2997 4.99707C20.7918 4.99707 22.0014 6.20671 22.0014 7.69885V16.1971C22.0014 17.8772 22.0014 18.7173 21.6745 19.3591C21.3869 19.9236 20.9279 20.3824 20.3634 20.6701C19.7217 20.9971 18.8817 20.9971 17.2014 20.9971H6.80147C5.12131 20.9971 4.28122 20.9971 3.63949 20.6701C3.07501 20.3824 2.61607 19.9236 2.32844 19.3591C2.00146 18.7173 2.00146 17.8772 2.00146 16.1971V7.69885Z" stroke="#CECFD2" stroke-width="1.66667" stroke-linecap="round" stroke-linejoin="round"/>
<path d="M2.00146 7.69885C2.00146 6.20671 3.21109 4.99707 4.70324 4.99707C5.47853 4.99707 6.16683 4.50098 6.41199 3.76547L6.50147 3.49707C6.54366 3.37051 6.56475 3.30722 6.58731 3.25107C6.87552 2.5342 7.55085 2.04743 8.32208 2.00073C8.38248 1.99707 8.44918 1.99707 8.5826 1.99707H15.4204C15.5537 1.99707 15.6204 1.99707 15.6809 2.00073C16.452 2.04743 17.1274 2.5342 17.4156 3.25107C17.4382 3.30722 17.4593 3.37051 17.5014 3.49707L17.5909 3.76547C17.8361 4.50098 18.5244 4.99707 19.2997 4.99707C20.7918 4.99707 22.0014 6.20671 22.0014 7.69885V16.1971C22.0014 17.8772 22.0014 18.7173 21.6745 19.3591C21.3869 19.9236 20.9279 20.3824 20.3634 20.6701C19.7217 20.9971 18.8817 20.9971 17.2014 20.9971H6.80147C5.12131 20.9971 4.28122 20.9971 3.63949 20.6701C3.07501 20.3824 2.61607 19.9236 2.32844 19.3591C2.00146 18.7173 2.00146 17.8772 2.00146 16.1971V7.69885Z" stroke="#344054" stroke-width="1.66667" stroke-linecap="round" stroke-linejoin="round"/>
<path d="M12.0015 16.4971C14.4868 16.4971 16.5015 14.4824 16.5015 11.9971C16.5015 9.51179 14.4868 7.49707 12.0015 7.49707C9.51618 7.49707 7.50146 9.51179 7.50146 11.9971C7.50146 14.4824 9.51618 16.4971 12.0015 16.4971Z" stroke="#CECFD2" stroke-width="1.66667" stroke-linecap="round" stroke-linejoin="round"/>
<path d="M12.0015 16.4971C14.4868 16.4971 16.5015 14.4824 16.5015 11.9971C16.5015 9.51179 14.4868 7.49707 12.0015 7.49707C9.51618 7.49707 7.50146 9.51179 7.50146 11.9971C7.50146 14.4824 9.51618 16.4971 12.0015 16.4971Z" stroke="#344054" stroke-width="1.66667" stroke-linecap="round" stroke-linejoin="round"/>
</svg>
