<svg width="20" height="20" viewBox="0 0 20 20" fill="none" xmlns="http://www.w3.org/2000/svg">
<g clip-path="url(#clip0_19813_61265)">
<path d="M6.66797 11.6641C6.66797 11.6641 7.91797 13.3307 10.0013 13.3307C12.0846 13.3307 13.3346 11.6641 13.3346 11.6641M12.5013 7.4974H12.5096M7.5013 7.4974H7.50964M18.3346 9.9974C18.3346 14.5998 14.6037 18.3307 10.0013 18.3307C5.39893 18.3307 1.66797 14.5998 1.66797 9.9974C1.66797 5.39502 5.39893 1.66406 10.0013 1.66406C14.6037 1.66406 18.3346 5.39502 18.3346 9.9974ZM12.918 7.4974C12.918 7.72751 12.7314 7.91406 12.5013 7.91406C12.2712 7.91406 12.0846 7.72751 12.0846 7.4974C12.0846 7.26728 12.2712 7.08073 12.5013 7.08073C12.7314 7.08073 12.918 7.26728 12.918 7.4974ZM7.91797 7.4974C7.91797 7.72751 7.73142 7.91406 7.5013 7.91406C7.27118 7.91406 7.08464 7.72751 7.08464 7.4974C7.08464 7.26728 7.27118 7.08073 7.5013 7.08073C7.73142 7.08073 7.91797 7.26728 7.91797 7.4974Z" stroke="#475467" stroke-width="1.66667" stroke-linecap="round" stroke-linejoin="round"/>
</g>
<defs>
<clipPath id="clip0_19813_61265">
<rect width="20" height="20" fill="white"/>
</clipPath>
</defs>
</svg>
