<svg width="24" height="24" viewBox="0 0 24 24" fill="none" xmlns="http://www.w3.org/2000/svg">
<path d="M17 19.9971H16.8C15.1199 19.9971 14.2798 19.9971 13.638 19.6701C13.0735 19.3825 12.6146 18.9235 12.327 18.359C12 17.7174 12 16.8772 12 15.1971V8.79707C12 7.11692 12 6.27683 12.327 5.6351C12.6146 5.07062 13.0735 4.61168 13.638 4.32405C14.2798 3.99707 15.1199 3.99707 16.8 3.99707H17M17 19.9971C17 21.1016 17.8955 21.997 19 21.997C20.1046 21.997 21 21.1016 21 19.9971C21 18.8925 20.1046 17.9971 19 17.9971C17.8955 17.9971 17 18.8925 17 19.9971ZM17 3.99707C17 5.10164 17.8955 5.99708 19 5.99708C20.1046 5.99708 21 5.10164 21 3.99707C21 2.8925 20.1046 1.99707 19 1.99707C17.8955 1.99707 17 2.8925 17 3.99707ZM7 11.9971H17M7 11.9971C7 13.1017 6.10457 13.9971 5 13.9971C3.89543 13.9971 3 13.1017 3 11.9971C3 10.8925 3.89543 9.99708 5 9.99708C6.10457 9.99708 7 10.8925 7 11.9971ZM17 11.9971C17 13.1017 17.8955 13.9971 19 13.9971C20.1046 13.9971 21 13.1017 21 11.9971C21 10.8925 20.1046 9.99708 19 9.99708C17.8955 9.99708 17 10.8925 17 11.9971Z" stroke="#344054" stroke-width="1.66667" stroke-linecap="round" stroke-linejoin="round"/>
</svg>
