<svg width="20" height="20" viewBox="0 0 20 20" fill="none" xmlns="http://www.w3.org/2000/svg">
<path d="M4.16406 4.1576C4.16406 3.3483 4.16406 2.94365 4.3328 2.72059C4.47981 2.52626 4.7045 2.40601 4.94773 2.39149C5.22693 2.37482 5.56362 2.59928 6.237 3.0482L15 8.89018C15.5564 9.26111 15.8346 9.44658 15.9315 9.68035C16.0163 9.88473 16.0163 10.1144 15.9315 10.3188C15.8346 10.5526 15.5564 10.738 15 11.109L6.237 16.951C5.56362 17.3999 5.22693 17.6243 4.94773 17.6077C4.7045 17.5931 4.47981 17.4729 4.3328 17.2786C4.16406 17.0555 4.16406 16.6509 4.16406 15.8416V4.1576Z" stroke="white" stroke-width="1.66667" stroke-linecap="round" stroke-linejoin="round"/>
</svg>
