<svg width="21" height="20" viewBox="0 0 21 20" fill="none" xmlns="http://www.w3.org/2000/svg">
<path d="M3 6.5C3 5.09987 3 4.3998 3.27248 3.86502C3.51217 3.39462 3.89462 3.01217 4.36502 2.77248C4.8998 2.5 5.59987 2.5 7 2.5H14C15.4001 2.5 16.1002 2.5 16.635 2.77248C17.1054 3.01217 17.4878 3.39462 17.7275 3.86502C18 4.3998 18 5.09987 18 6.5V13.5C18 14.9001 18 15.6002 17.7275 16.135C17.4878 16.6054 17.1054 16.9878 16.635 17.2275C16.1002 17.5 15.4001 17.5 14 17.5H7C5.59987 17.5 4.8998 17.5 4.36502 17.2275C3.89462 16.9878 3.51217 16.6054 3.27248 16.135C3 15.6002 3 14.9001 3 13.5V6.5Z" stroke="white" stroke-width="1.66667" stroke-linecap="round" stroke-linejoin="round"/>
</svg>
