<svg width="24" height="24" viewBox="0 0 24 24" fill="none" xmlns="http://www.w3.org/2000/svg">
<path d="M22.0016 8.92836C22.0016 8.32255 22.0016 8.01964 21.8819 7.87938C21.7779 7.75768 21.6219 7.69308 21.4625 7.70565C21.2785 7.72012 21.0643 7.93431 20.636 8.36268L17.0017 11.997L20.636 15.6313C21.0643 16.0597 21.2785 16.2739 21.4625 16.2883C21.6219 16.3009 21.7779 16.2364 21.8819 16.1146C22.0016 15.9744 22.0016 15.6714 22.0016 15.0656V8.92836Z" stroke="#344054" stroke-width="1.66667" stroke-linecap="round" stroke-linejoin="round"/>
<path d="M2.00146 9.79707C2.00146 8.11691 2.00146 7.27684 2.32844 6.63511C2.61607 6.07061 3.07501 5.61167 3.63949 5.32406C4.28122 4.99707 5.12131 4.99707 6.80146 4.99707H12.2015C13.8816 4.99707 14.7217 4.99707 15.3634 5.32406C15.928 5.61167 16.3869 6.07061 16.6745 6.63511C17.0015 7.27684 17.0015 8.11691 17.0015 9.79707V14.197C17.0015 15.8773 17.0015 16.7173 16.6745 17.359C16.3869 17.9235 15.928 18.3825 15.3634 18.67C14.7217 18.997 13.8816 18.997 12.2015 18.997H6.80146C5.12131 18.997 4.28122 18.997 3.63949 18.67C3.07501 18.3825 2.61607 17.9235 2.32844 17.359C2.00146 16.7173 2.00146 15.8773 2.00146 14.197V9.79707Z" stroke="#344054" stroke-width="1.66667" stroke-linecap="round" stroke-linejoin="round"/>
</svg>
