<svg width="20" height="20" viewBox="0 0 20 20" fill="none" xmlns="http://www.w3.org/2000/svg">
<g clip-path="url(#clip0_19538_81272)">
<path d="M8.33057 10.833C8.68845 11.3114 9.14503 11.7073 9.66936 11.9938C10.1937 12.2802 10.7735 12.4506 11.3694 12.4933C11.9654 12.5359 12.5636 12.45 13.1234 12.2411C13.6832 12.0323 14.1915 11.7055 14.6139 11.283L17.1139 8.78298C17.8729 7.99714 18.2929 6.94463 18.2834 5.85214C18.2739 4.75965 17.8357 3.7146 17.0631 2.94207C16.2906 2.16953 15.2456 1.73133 14.1531 1.72184C13.0606 1.71234 12.0081 2.13232 11.2222 2.89131L9.7889 4.31631M11.6639 9.16631C11.306 8.68787 10.8494 8.29199 10.3251 8.00553C9.80078 7.71906 9.22098 7.54871 8.62503 7.50603C8.02908 7.46335 7.43091 7.54934 6.87112 7.75816C6.31132 7.96698 5.80297 8.29375 5.38057 8.71631L2.88057 11.2163C2.12158 12.0022 1.7016 13.0547 1.7111 14.1472C1.72059 15.2396 2.15879 16.2847 2.93133 17.0572C3.70386 17.8298 4.74891 18.268 5.8414 18.2775C6.93388 18.2869 7.98639 17.867 8.77224 17.108L10.1972 15.683" stroke="#98A2B3" stroke-width="1.67" stroke-linecap="round" stroke-linejoin="round"/>
</g>
<defs>
<clipPath id="clip0_19538_81272">
<rect width="20" height="20" fill="white"/>
</clipPath>
</defs>
</svg>
