<svg width="20" height="20" viewBox="0 0 20 20" fill="none" xmlns="http://www.w3.org/2000/svg">
<path d="M7.83083 16.1429L8.31787 17.2383C8.46265 17.5644 8.69893 17.8414 8.99805 18.0358C9.29718 18.2303 9.64629 18.3337 10.0031 18.3337C10.3598 18.3337 10.7089 18.2303 11.008 18.0358C11.3072 17.8414 11.5435 17.5644 11.6882 17.2383L12.1753 16.1429C12.3486 15.7542 12.6403 15.4302 13.0086 15.217C13.3793 15.0032 13.808 14.9121 14.2336 14.9568L15.4253 15.0837C15.78 15.1212 16.138 15.055 16.4558 14.8931C16.7737 14.7312 17.0378 14.4806 17.216 14.1716C17.3945 13.8628 17.4795 13.5089 17.4608 13.1527C17.4421 12.7966 17.3204 12.4535 17.1105 12.1651L16.4049 11.1957C16.1537 10.8479 16.0194 10.4293 16.0216 10.0003C16.0215 9.57248 16.157 9.15562 16.4086 8.80959L17.1142 7.84014C17.3241 7.55179 17.4458 7.20872 17.4645 6.85255C17.4832 6.49639 17.3982 6.14244 17.2197 5.83366C17.0415 5.52469 16.7774 5.27407 16.4595 5.11218C16.1417 4.9503 15.7837 4.8841 15.429 4.92162L14.2373 5.04847C13.8118 5.09317 13.383 5.00209 13.0123 4.78829C12.6432 4.57387 12.3515 4.24812 12.179 3.85773L11.6882 2.76236C11.5435 2.4363 11.3072 2.15925 11.008 1.96482C10.7089 1.77039 10.3598 1.66693 10.0031 1.66699C9.64629 1.66693 9.29718 1.77039 8.99805 1.96482C8.69893 2.15925 8.46265 2.4363 8.31787 2.76236L7.83083 3.85773C7.65827 4.24812 7.36656 4.57387 6.9975 4.78829C6.62684 5.00209 6.19805 5.09317 5.7725 5.04847L4.57713 4.92162C4.2224 4.8841 3.86441 4.9503 3.54655 5.11218C3.2287 5.27407 2.96464 5.52469 2.78638 5.83366C2.6079 6.14244 2.52287 6.49639 2.54161 6.85255C2.56034 7.20872 2.68204 7.55179 2.89194 7.84014L3.5975 8.80959C3.84911 9.15562 3.98461 9.57248 3.98453 10.0003C3.98461 10.4282 3.84911 10.845 3.5975 11.1911L2.89194 12.1605C2.68204 12.4489 2.56034 12.7919 2.54161 13.1481C2.52287 13.5043 2.6079 13.8582 2.78638 14.167C2.96481 14.4758 3.22891 14.7263 3.54672 14.8882C3.86452 15.05 4.22243 15.1163 4.57713 15.079L5.76879 14.9522C6.19435 14.9075 6.62314 14.9986 6.99379 15.2124C7.36423 15.4262 7.6573 15.752 7.83083 16.1429Z" stroke="#667085" stroke-width="1.66667" stroke-linecap="round" stroke-linejoin="round"/>
<path d="M10.0016 12.5003C11.3823 12.5003 12.5016 11.381 12.5016 10.0003C12.5016 8.61961 11.3823 7.50033 10.0016 7.50033C8.62085 7.50033 7.50156 8.61961 7.50156 10.0003C7.50156 11.381 8.62085 12.5003 10.0016 12.5003Z" stroke="#667085" stroke-width="1.66667" stroke-linecap="round" stroke-linejoin="round"/>
</svg>
